<svg xmlns="http://www.w3.org/2000/svg" xmlns:xlink="http://www.w3.org/1999/xlink" width="18" height="18" viewBox="0 0 18 18">
  <defs>
    <linearGradient id="linear-gradient" x1="0.5" x2="0.5" y2="1" gradientUnits="objectBoundingBox">
      <stop offset="0" stop-color="#28bdce"/>
      <stop offset="1" stop-color="#1d8e9a"/>
    </linearGradient>
  </defs>
  <g id="Group_29" data-name="Group 29" transform="translate(-154 -600)">
    <circle id="Ellipse_28" data-name="Ellipse 28" cx="9" cy="9" r="9" transform="translate(154 600)" fill="url(#linear-gradient)"/>
    <path id="Path_230" data-name="Path 230" d="M5.742-.322a1.41,1.41,0,0,0-.1-.542A1.356,1.356,0,0,0,5.356-1.3a1.325,1.325,0,0,0-.43-.293A1.354,1.354,0,0,0,4.385-1.7Q3.037-1.7,3.037-.4a1.55,1.55,0,0,0,.1.552A1.31,1.31,0,0,0,3.408.6a1.27,1.27,0,0,0,.425.293A1.379,1.379,0,0,0,4.385,1a1.348,1.348,0,0,0,.527-.1,1.416,1.416,0,0,0,.43-.278A1.3,1.3,0,0,0,5.635.2,1.261,1.261,0,0,0,5.742-.322ZM8.018-8.535a2.664,2.664,0,0,0-.239-1.113,3.063,3.063,0,0,0-.64-.923,3.009,3.009,0,0,0-.933-.625A2.771,2.771,0,0,0,5.1-11.426a5.134,5.134,0,0,0-1.23.146,3.167,3.167,0,0,0-1.05.459A2.315,2.315,0,0,0,2.09-10a2.535,2.535,0,0,0-.273,1.226,1.947,1.947,0,0,0,.1.61,1.6,1.6,0,0,0,.288.527,1.437,1.437,0,0,0,.459.366,1.3,1.3,0,0,0,.6.137,1.383,1.383,0,0,0,.952-.293,1.133,1.133,0,0,0,.327-.889,1.169,1.169,0,0,0-.059-.352,1.9,1.9,0,0,0-.161-.366A2.469,2.469,0,0,0,4.1-9.37a1.324,1.324,0,0,0-.259-.249,1.454,1.454,0,0,1,1.26-.615,1.51,1.51,0,0,1,.972.308A1.109,1.109,0,0,1,6.455-9a2.081,2.081,0,0,1-.889,1.65q-.645.508-1.084.845l-.693.532a2.709,2.709,0,0,0-.762.869A2.117,2.117,0,0,0,2.773-4.1a1.848,1.848,0,0,0,.127.664,1.85,1.85,0,0,0,.356.586,1.942,1.942,0,0,0,.532.415,1.371,1.371,0,0,0,.654.161h.107L5.029-2.3l-.146-.449a1.137,1.137,0,0,1-.42-.264.479.479,0,0,1-.117-.322.755.755,0,0,1,.21-.415,4.208,4.208,0,0,1,.7-.63q.547-.41,1.045-.83a6.077,6.077,0,0,0,.879-.908A4.24,4.24,0,0,0,7.788-7.2,3.658,3.658,0,0,0,8.018-8.535Z" transform="translate(158 614.215)" fill="#fff"/>
  </g>
</svg>
