<svg xmlns="http://www.w3.org/2000/svg" xmlns:xlink="http://www.w3.org/1999/xlink" width="82" height="82" viewBox="0 0 82 82">
  <defs>
    <linearGradient id="linear-gradient" x1="0.5" x2="0.5" y2="1" gradientUnits="objectBoundingBox">
      <stop offset="0" stop-color="#ffcf31"/>
      <stop offset="1" stop-color="#b78d04"/>
    </linearGradient>
    <filter id="Ellipse_17" x="0" y="0" width="82" height="82" filterUnits="userSpaceOnUse">
      <feOffset dy="6" input="SourceAlpha"/>
      <feGaussianBlur stdDeviation="3" result="blur"/>
      <feFlood flood-color="#ffc400" flood-opacity="0.271"/>
      <feComposite operator="in" in2="blur"/>
      <feComposite in="SourceGraphic"/>
    </filter>
    <linearGradient id="linear-gradient-2" x1="0.5" y1="1" x2="0.5" gradientUnits="objectBoundingBox">
      <stop offset="0" stop-color="gray" stop-opacity="0.251"/>
      <stop offset="0.54" stop-color="gray" stop-opacity="0.122"/>
      <stop offset="1" stop-color="gray" stop-opacity="0.102"/>
    </linearGradient>
  </defs>
  <g id="Group_64" data-name="Group 64" transform="translate(-1700 -1012)">
    <g transform="matrix(1, 0, 0, 1, 1700, 1012)" filter="url(#Ellipse_17)">
      <circle id="Ellipse_17-2" data-name="Ellipse 17" cx="32" cy="32" r="32" transform="translate(9 3)" fill="url(#linear-gradient)"/>
    </g>
    <g id="Group_3" data-name="Group 3" transform="translate(1723 1031.992)">
      <path id="Path_35" data-name="Path 35" d="M122.975,73.443a20.53,20.53,0,0,1-6.66-1.654,37.555,37.555,0,0,0-6.483-2.168,5.955,5.955,0,0,0-4.308.463,4.53,4.53,0,0,0-1.7,3.262A4.533,4.533,0,0,0,104,76.061c.282.59.782,1.087,1.127,1.654,1.2,1.967.353,4.394-.951,6.315a23.945,23.945,0,0,0-1.793,2.72,3.677,3.677,0,0,0-.278,3.037A4.81,4.81,0,0,0,104.545,92a19.474,19.474,0,0,0,7.141,1.507c5.459.374,10.946.212,16.42.05a48.209,48.209,0,0,0,6.052-.434A6.315,6.315,0,0,0,137.21,92a2.557,2.557,0,0,0,.589-3.339c-1.147-1.779-4.314-2.221-5.117-4.131a3.5,3.5,0,0,1,.653-3.2c1.375-2.091,3.679-3.926,3.8-6.316a4.418,4.418,0,0,0-2.738-4.063c-1.8-.817-4.285-.714-5.609.634C127.426,72.982,125.029,73.515,122.975,73.443Z" transform="translate(-101.408 -68.495)" fill="#fff"/>
      <path id="Path_36" data-name="Path 36" d="M72.689,408.594l-12.306-.06-1.223-2.868,4.324-.314-.754-3.144,8.552-1.108-8.189-2.847.723-.172,13.168,2.148-.725,4.907-1.037,2.7Z" transform="translate(-57.033 -383.76)" fill="#6c63ff"/>
      <path id="Path_37" data-name="Path 37" d="M187,698.525a1.412,1.412,0,0,1,1.208.413s-.332.262-1.047-.1Z" transform="translate(-183.461 -674.953)" fill="#6c63ff"/>
      <path id="Path_38" data-name="Path 38" d="M176.483,698.51a1.408,1.408,0,0,0-.244,1.253s.393-.157.435-.957Z" transform="translate(-173.023 -674.95)" fill="#6c63ff"/>
      <path id="Path_39" data-name="Path 39" d="M172.76,666.259s.3-.554,1.51.221a.678.678,0,0,1-.695.342A.819.819,0,0,1,172.76,666.259Z" transform="translate(-169.733 -643.673)" fill="#6c63ff"/>
      <path id="Path_40" data-name="Path 40" d="M152.157,670.274s-.627-.072-.687,1.363a.678.678,0,0,0,.68-.371A.817.817,0,0,0,152.157,670.274Z" transform="translate(-149.209 -647.729)" fill="#6c63ff"/>
      <path id="Path_41" data-name="Path 41" d="M160.44,624.213s.352-.977,1.631-.282c0,0-.292.9-1.5.614Z" transform="translate(-157.856 -602.812)" fill="#6c63ff"/>
      <path id="Path_42" data-name="Path 42" d="M149.52,585.51s.664-.987,1.842-.072c0,0-.413.926-1.742.423Z" transform="translate(-147.329 -565.569)" fill="#6c63ff"/>
      <path id="Path_43" data-name="Path 43" d="M145.6,548.418a1.348,1.348,0,0,1,1.941,0,1.659,1.659,0,0,1-1.941.232Z" transform="translate(-143.55 -529.866)" fill="#6c63ff"/>
      <path id="Path_44" data-name="Path 44" d="M142.24,510a1.3,1.3,0,0,1,1.9-.05,1.693,1.693,0,0,1-1.9.272Z" transform="translate(-140.311 -492.799)" fill="#6c63ff"/>
      <path id="Path_45" data-name="Path 45" d="M144.2,470.149s.827-1.218,1.872-.393c0,0-.886,1.047-1.872.624Z" transform="translate(-142.2 -454.144)" fill="#6c63ff"/>
      <path id="Path_46" data-name="Path 46" d="M149.52,432.523s.876-1.208,1.893-.282c0,0-1.037,1.047-1.893.5Z" transform="translate(-147.329 -417.917)" fill="#6c63ff"/>
      <path id="Path_47" data-name="Path 47" d="M156.425,393.489s1.037-1.135,1.942-.683c0,0-1.08,1.206-1.987.984Z" transform="translate(-153.942 -380.134)" fill="#6c63ff"/>
      <path id="Path_48" data-name="Path 48" d="M165.445,354.3s1.2-1.391,1.893-.926a3.475,3.475,0,0,1-1.977,1.186Z" transform="translate(-162.6 -342.131)" fill="#6c63ff"/>
      <path id="Path_49" data-name="Path 49" d="M178.5,319.338s1.047-1.135,1.812-.854a3.137,3.137,0,0,1-1.953,1.208Z" transform="translate(-175.132 -308.544)" fill="#6c63ff"/>
      <path id="Path_50" data-name="Path 50" d="M194.09,283.021s1.158-1.087,1.661-.9c0,0-.836,1.208-1.711,1.138Z" transform="translate(-190.248 -273.513)" fill="#6c63ff"/>
      <path id="Path_51" data-name="Path 51" d="M208.32,242.329s1-1.3,1.541-1.2c0,0-.6,1.158-1.541,1.33Z" transform="translate(-204.015 -234.01)" fill="#6c63ff"/>
      <path id="Path_52" data-name="Path 52" d="M221.326,203.423s.881-1,1.357-.993c0,0-.7,1.33-1.393,1.318Z" transform="translate(-216.519 -196.706)" fill="#6c63ff"/>
      <path id="Path_53" data-name="Path 53" d="M227.678,144.794l.851-2.074s.042,1.875-.959,2.459Z" transform="translate(-222.573 -139.143)" fill="#6c63ff"/>
      <path id="Path_54" data-name="Path 54" d="M240.036,86.573a12.377,12.377,0,0,0,.05-1.873,3.352,3.352,0,0,1-.056,2.638Z" transform="translate(-234.585 -83.209)" fill="#6c63ff"/>
      <path id="Path_55" data-name="Path 55" d="M120.544,634.853s-.882-.547-1.454.791c0,0,.785.521,1.558-.45Z" transform="translate(-117.993 -613.475)" fill="#6c63ff"/>
      <path id="Path_56" data-name="Path 56" d="M105.637,594.04s-1.082-.494-1.607.9c0,0,.836.575,1.706-.55Z" transform="translate(-103.475 -574.154)" fill="#6c63ff"/>
      <path id="Path_57" data-name="Path 57" d="M92.141,550.728a1.348,1.348,0,0,0-1.941,0,1.659,1.659,0,0,0,1.941.232Z" transform="translate(-90.142 -532.093)" fill="#6c63ff"/>
      <path id="Path_58" data-name="Path 58" d="M90.483,510a1.3,1.3,0,0,0-1.9-.05,1.693,1.693,0,0,0,1.9.272Z" transform="translate(-88.58 -492.799)" fill="#6c63ff"/>
      <path id="Path_59" data-name="Path 59" d="M97.328,464.548s-.551-1.364-1.748-.778c0,0,.647,1.21,1.7,1Z" transform="translate(-95.328 -448.508)" fill="#6c63ff"/>
      <path id="Path_60" data-name="Path 60" d="M104.212,424.729s-.548-1.388-1.762-.745c0,0,.744,1.272,1.708.959Z" transform="translate(-101.951 -410.13)" fill="#6c63ff"/>
      <path id="Path_61" data-name="Path 61" d="M128.112,370.388s-.216-1.522-1.222-1.658c0,0,.214,1.6,1.087,1.933Z" transform="translate(-125.513 -357.027)" fill="#6c63ff"/>
      <path id="Path_62" data-name="Path 62" d="M143.856,330.878s-.084-1.834-.916-1.9a3.493,3.493,0,0,0,.823,2.157Z" transform="translate(-140.986 -318.706)" fill="#6c63ff"/>
      <path id="Path_63" data-name="Path 63" d="M156.713,296.121s-.248-1.525-1.043-1.711a3.14,3.14,0,0,0,.964,2.085Z" transform="translate(-153.258 -285.379)" fill="#6c63ff"/>
      <path id="Path_64" data-name="Path 64" d="M182.97,259.152s-.008-1.588-.494-1.822c0,0-.3,1.438.353,2.025Z" transform="translate(-179.034 -249.632)" fill="#6c63ff"/>
      <path id="Path_65" data-name="Path 65" d="M193.518,224.076s-.068-1.636-.571-1.866a2.709,2.709,0,0,0,.5,1.973Z" transform="translate(-189.176 -215.775)" fill="#6c63ff"/>
      <path id="Path_66" data-name="Path 66" d="M211.409,189.652s0-1.33-.362-1.642c0,0-.357,1.457.174,1.91Z" transform="translate(-206.531 -182.804)" fill="#6c63ff"/>
      <path id="Path_67" data-name="Path 67" d="M216.472,139.214,216.123,137s-.474,1.814.366,2.614Z" transform="translate(-211.409 -133.628)" fill="#6c63ff"/>
      <path id="Path_68" data-name="Path 68" d="M207.76,93.024a12.447,12.447,0,0,1-.878-1.654,3.351,3.351,0,0,0,1.222,2.337Z" transform="translate(-202.629 -89.639)" fill="#6c63ff"/>
      <path id="Path_69" data-name="Path 69" d="M201.288,63.865s-.846-2.114-1.228-2.285a2.68,2.68,0,0,1,1.3,2.225Z" transform="translate(-196.052 -60.92)" fill="#6c63ff"/>
      <path id="Path_70" data-name="Path 70" d="M219.618,125.625l-.058-.018c.714-2.327.892-3.811.5-4.183l.041-.044C220.517,121.773,220.349,123.24,219.618,125.625Z" transform="translate(-214.851 -118.57)" fill="#444053"/>
      <path id="Path_71" data-name="Path 71" d="M164.216,240.329l-.086-.031c.076-.213.157-.43.243-.643.745-1.857,1.379-3.584,1.786-4.91l.074-.036c-.407,1.328-1.03,3.122-1.776,4.981C164.372,239.9,164.291,240.116,164.216,240.329Z" transform="translate(-161.414 -227.825)" fill="#444053"/>
      <path id="Path_72" data-name="Path 72" d="M142.605,398.392a11.761,11.761,0,0,1-1.975-3.539,13.094,13.094,0,0,1-.779-4.055,15.3,15.3,0,0,1,.93-5.418l.068.079a13.885,13.885,0,0,0-.106,9.348,11.651,11.651,0,0,0,1.953,3.5Z" transform="translate(-138.003 -373.078)" fill="#444053"/>
      <path id="Path_73" data-name="Path 73" d="M515.858,670.36a2.468,2.468,0,0,0-.168,2.5l-6.508,2.822-.625.131-.288-1.258.192-1.588V672.1Z" transform="translate(-493.181 -647.812)" fill="#d5d6db"/>
      <path id="Path_74" data-name="Path 74" d="M59.16,565.032l9.007-1.642,11.935,1.9-7.413,2.669Z" transform="translate(-57.033 -543.127)" fill="#6c63ff"/>
      <path id="Path_75" data-name="Path 75" d="M59.16,565.032l9.007-1.642,11.935,1.9-7.413,2.669Z" transform="translate(-57.033 -543.127)" fill="#6c63ff"/>
      <path id="Path_76" data-name="Path 76" d="M138.648,652.47a3.213,3.213,0,0,0,.128,3.07l13.357,2.894a3.159,3.159,0,0,1,.043-3.036Z" transform="translate(-136.521 -630.565)" fill="#6c63ff"/>
      <path id="Path_77" data-name="Path 77" d="M138.648,652.47a3.213,3.213,0,0,0,.128,3.07l13.357,2.894a3.159,3.159,0,0,1,.043-3.036Z" transform="translate(-136.521 -630.565)" opacity="0.1"/>
      <path id="Path_78" data-name="Path 78" d="M153.073,667.86a2.446,2.446,0,0,0,0,1.924" transform="translate(-150.548 -645.402)" opacity="0.1"/>
      <path id="Path_79" data-name="Path 79" d="M164.667,733.042l7.457-3.182s.417.09.147.4-7.46,3.092-7.46,3.092l-13.5-3.2Z" transform="translate(-149.055 -705.173)" fill="#6c63ff"/>
      <path id="Path_80" data-name="Path 80" d="M164.667,733.042l7.457-3.182s.417.09.147.4-7.46,3.092-7.46,3.092l-13.5-3.2Z" transform="translate(-149.055 -705.173)" opacity="0.1"/>
      <path id="Path_81" data-name="Path 81" d="M497.241,742.86a1.918,1.918,0,0,0,0,2.157" transform="translate(-482.24 -717.705)" opacity="0.1"/>
      <rect id="Rectangle_3" data-name="Rectangle 3" width="3.4" height="0.036" transform="translate(15.257 26.216) rotate(-18.45)" opacity="0.1"/>
      <rect id="Rectangle_4" data-name="Rectangle 4" width="4.143" height="0.036" transform="translate(15.256 26.505) rotate(-20.82)" opacity="0.1"/>
      <rect id="Rectangle_5" data-name="Rectangle 5" width="4.802" height="0.036" transform="translate(15.277 26.847) rotate(-22.26)" opacity="0.1"/>
      <rect id="Rectangle_6" data-name="Rectangle 6" width="5.527" height="0.036" transform="translate(15.329 27.148) rotate(-24.31)" opacity="0.1"/>
      <rect id="Rectangle_7" data-name="Rectangle 7" width="6.046" height="0.036" transform="matrix(0.916, -0.401, 0.401, 0.916, 15.369, 27.294)" opacity="0.1"/>
      <rect id="Rectangle_8" data-name="Rectangle 8" width="7.235" height="0.036" transform="translate(15.453 27.54) rotate(-23.36)" opacity="0.1"/>
      <path id="Path_82" data-name="Path 82" d="M152.23,578.27l6.328-1.33,3.855.737-5.185,1.672Z" transform="translate(-146.757 -556.19)" fill="#fff" opacity="0.3"/>
      <path id="Path_83" data-name="Path 83" d="M531.414,659.69s.327.132.135.336S524,662.359,524,662.359Z" transform="translate(-508.345 -637.526)" fill="#6c63ff"/>
      <path id="Path_84" data-name="Path 84" d="M615.157,574.18a2.469,2.469,0,0,0-.168,2.5l-6.508,2.822-.625.132-.288-1.258.2-1.588v-.869Z" transform="translate(-588.91 -555.09)" fill="#d5d6db"/>
      <path id="Path_85" data-name="Path 85" d="M158.46,468.852l9.007-1.642,11.935,1.9-7.413,2.669Z" transform="translate(-152.763 -450.405)" fill="#3a3768"/>
      <path id="Path_86" data-name="Path 86" d="M237.9,556.29a3.213,3.213,0,0,0,.128,3.07l13.357,2.894a3.16,3.16,0,0,1,.044-3.036Z" transform="translate(-232.206 -537.843)" fill="#3a3768"/>
      <path id="Path_87" data-name="Path 87" d="M237.9,556.29a3.213,3.213,0,0,0,.128,3.07l13.357,2.894a3.16,3.16,0,0,1,.044-3.036l-4.224-.914Z" transform="translate(-232.206 -537.843)" opacity="0.1"/>
      <path id="Path_88" data-name="Path 88" d="M252.367,571.68a2.448,2.448,0,0,0,0,1.924" transform="translate(-246.272 -552.68)" opacity="0.1"/>
      <path id="Path_89" data-name="Path 89" d="M263.957,636.862l7.457-3.182s.417.09.147.4-7.46,3.092-7.46,3.092l-13.5-3.2Z" transform="translate(-244.775 -612.451)" fill="#3a3768"/>
      <path id="Path_90" data-name="Path 90" d="M263.957,636.862l7.457-3.182s.417.09.147.4-7.46,3.092-7.46,3.092l-13.5-3.2Z" transform="translate(-244.775 -612.451)" opacity="0.1"/>
      <path id="Path_91" data-name="Path 91" d="M596.531,646.68a1.918,1.918,0,0,0,0,2.157" transform="translate(-577.96 -624.983)" opacity="0.1"/>
      <rect id="Rectangle_9" data-name="Rectangle 9" width="3.4" height="0.036" transform="translate(18.827 22.758) rotate(-18.45)" opacity="0.1"/>
      <rect id="Rectangle_10" data-name="Rectangle 10" width="4.143" height="0.036" transform="translate(18.826 23.048) rotate(-20.82)" opacity="0.1"/>
      <rect id="Rectangle_11" data-name="Rectangle 11" width="4.802" height="0.036" transform="translate(18.847 23.388) rotate(-22.26)" opacity="0.1"/>
      <rect id="Rectangle_12" data-name="Rectangle 12" width="5.527" height="0.036" transform="translate(18.9 23.689) rotate(-24.31)" opacity="0.1"/>
      <rect id="Rectangle_13" data-name="Rectangle 13" width="6.046" height="0.036" transform="matrix(0.916, -0.401, 0.401, 0.916, 18.939, 23.835)" opacity="0.1"/>
      <rect id="Rectangle_14" data-name="Rectangle 14" width="7.235" height="0.036" transform="translate(19.023 24.081) rotate(-23.36)" opacity="0.1"/>
      <path id="Path_92" data-name="Path 92" d="M251.53,482.09l6.328-1.33,3.855.737-5.185,1.672Z" transform="translate(-242.487 -463.468)" fill="#fff" opacity="0.45"/>
      <path id="Path_93" data-name="Path 93" d="M630.743,563.51s.327.132.135.335-7.548,2.333-7.548,2.333Z" transform="translate(-604.104 -544.804)" fill="#3a3768"/>
      <path id="Path_94" data-name="Path 94" d="M624.586,464.15a4.611,4.611,0,0,0-.168,3.29l-6.508,2.031-.623.132L617,468.345l.192-1.588v-.869Z" transform="translate(-598.001 -449.016)" fill="#d5d6db"/>
      <path id="Path_95" data-name="Path 95" d="M167.89,358.822l9.007-1.642,11.935,1.9-7.413,2.669Z" transform="translate(-161.854 -344.331)" fill="#6c63ff"/>
      <path id="Path_96" data-name="Path 96" d="M247.351,446.26a3.211,3.211,0,0,0,.127,3.07l13.357,2.894a3.158,3.158,0,0,1,.044-3.036Z" transform="translate(-241.315 -431.769)" fill="#6c63ff"/>
      <path id="Path_97" data-name="Path 97" d="M247.351,446.26a3.211,3.211,0,0,0,.127,3.07l13.357,2.894a3.158,3.158,0,0,1,.044-3.036Z" transform="translate(-241.315 -431.769)" opacity="0.1"/>
      <path id="Path_98" data-name="Path 98" d="M261.8,461.65a2.446,2.446,0,0,0,0,1.924" transform="translate(-255.369 -446.606)" opacity="0.1"/>
      <path id="Path_99" data-name="Path 99" d="M273.4,534.544l7.457-2.391s.417.09.147.4-7.46,2.3-7.46,2.3l-13.5-3.2Z" transform="translate(-253.875 -514.089)" fill="#6c63ff"/>
      <path id="Path_100" data-name="Path 100" d="M273.4,534.544l7.457-2.391s.417.09.147.4-7.46,2.3-7.46,2.3l-13.5-3.2Z" transform="translate(-253.875 -514.089)" opacity="0.1"/>
      <path id="Path_101" data-name="Path 101" d="M605.971,536.65a1.918,1.918,0,0,0,0,2.157" transform="translate(-587.06 -518.909)" opacity="0.1"/>
      <rect id="Rectangle_15" data-name="Rectangle 15" width="3.4" height="0.036" transform="translate(19.166 18.802) rotate(-18.45)" opacity="0.1"/>
      <rect id="Rectangle_16" data-name="Rectangle 16" width="4.143" height="0.036" transform="translate(19.166 19.092) rotate(-20.82)" opacity="0.1"/>
      <rect id="Rectangle_17" data-name="Rectangle 17" width="4.802" height="0.036" transform="translate(19.186 19.433) rotate(-22.26)" opacity="0.1"/>
      <rect id="Rectangle_18" data-name="Rectangle 18" width="5.527" height="0.036" transform="translate(19.239 19.733) rotate(-24.31)" opacity="0.1"/>
      <rect id="Rectangle_19" data-name="Rectangle 19" width="6.046" height="0.036" transform="matrix(0.916, -0.401, 0.401, 0.916, 19.279, 19.88)" opacity="0.1"/>
      <rect id="Rectangle_20" data-name="Rectangle 20" width="7.235" height="0.036" transform="translate(19.362 20.126) rotate(-23.36)" opacity="0.1"/>
      <path id="Path_102" data-name="Path 102" d="M260.96,372.06l6.328-1.33,3.855.737-5.185,1.672Z" transform="translate(-251.578 -357.394)" fill="#fff" opacity="0.3"/>
      <path id="Path_103" data-name="Path 103" d="M640.173,453.48s.327.132.135.336-7.548,2.333-7.548,2.333Z" transform="translate(-613.195 -438.73)" fill="#6c63ff"/>
      <path id="Path_104" data-name="Path 104" d="M366.3,149.873s-1.366-.082-1.207.876a.234.234,0,0,0,.122.246s0-.072.14-.047a.613.613,0,0,0,.149.007.31.31,0,0,0,.182-.075h0a1.086,1.086,0,0,0,.534-.787s.111-.137.108-.172l-.232.1a.415.415,0,0,1,.017.3s-.008-.3-.052-.292c-.009,0-.12.058-.12.058a.682.682,0,0,1,.033.5s.039-.357-.076-.48l-.163.095a.717.717,0,0,1,.051.544,1.02,1.02,0,0,0-.085-.521l-.147.115a.7.7,0,0,1,.058.5s-.012-.436-.09-.47a.889.889,0,0,0-.148.16s.1.216.038.328c0,0-.038-.291-.072-.292a.968.968,0,0,0-.142.324.7.7,0,0,1,.11-.343.385.385,0,0,0-.2.1s.02-.136.228-.148a.884.884,0,0,1,.134-.155.842.842,0,0,0-.333.038.377.377,0,0,1,.371-.072l.144-.119a1.241,1.241,0,0,0-.388,0,.473.473,0,0,1,.427-.031l.159-.095a1.441,1.441,0,0,0-.371-.032.569.569,0,0,1,.417.006l.113-.051s-.17-.033-.22-.039-.052-.019-.052-.019a.594.594,0,0,1,.32.036A1.427,1.427,0,0,0,366.3,149.873Z" transform="translate(-355.138 -146.036)" fill="#6c63ff"/>
      <path id="Path_105" data-name="Path 105" d="M900.9,259.453s-1.366-.082-1.207.876a.234.234,0,0,0,.121.246s0-.072.14-.047a.634.634,0,0,0,.149.007.309.309,0,0,0,.18-.075h0a1.085,1.085,0,0,0,.534-.787s.111-.137.108-.172l-.231.1a.415.415,0,0,1,.017.3s-.008-.3-.052-.292c-.009,0-.12.058-.12.058a.683.683,0,0,1,.033.5s.039-.357-.076-.48l-.162.095a.718.718,0,0,1,.051.544,1.019,1.019,0,0,0-.085-.521l-.147.115a.7.7,0,0,1,.058.5s-.012-.436-.09-.47a.9.9,0,0,0-.148.16s.1.216.039.328c0,0-.039-.291-.072-.292a.969.969,0,0,0-.142.324.7.7,0,0,1,.111-.343.387.387,0,0,0-.2.1s.02-.136.228-.148a.9.9,0,0,1,.134-.155.845.845,0,0,0-.333.038.377.377,0,0,1,.371-.072l.144-.119a1.241,1.241,0,0,0-.388,0,.473.473,0,0,1,.427-.031l.158-.095a1.439,1.439,0,0,0-.371-.032.569.569,0,0,1,.417.006l.113-.051s-.17-.033-.22-.039-.052-.019-.052-.019a.589.589,0,0,1,.32.036A1.452,1.452,0,0,0,900.9,259.453Z" transform="translate(-870.517 -251.676)" fill="#6c63ff" opacity="0.1"/>
      <path id="Path_106" data-name="Path 106" d="M422.531,293.317s-.6-1.234-1.353-.626a.233.233,0,0,0-.156.226s.063-.033.108.1a.637.637,0,0,0,.066.133.31.31,0,0,0,.154.122h0a1.085,1.085,0,0,0,.948.082.615.615,0,0,0,.2.009l-.2-.154a.417.417,0,0,1-.258.163s.257-.152.23-.187c-.006-.007-.108-.077-.108-.077a.683.683,0,0,1-.421.273s.331-.14.382-.3l-.162-.1a.717.717,0,0,1-.45.31s.341-.159.413-.328l-.172-.072s-.185.274-.407.294c0,0,.375-.223.366-.308a.911.911,0,0,0-.212-.051s-.137.194-.267.194c0,0,.235-.176.22-.2a.948.948,0,0,0-.352.036.7.7,0,0,1,.353-.072.388.388,0,0,0-.185-.122s.129-.049.241.127a.889.889,0,0,1,.2.042.844.844,0,0,0-.2-.271s.166.033.242.288l.174.069a1.2,1.2,0,0,0-.193-.337s.164.061.236.36l.16.092a1.422,1.422,0,0,0-.153-.339.57.57,0,0,1,.2.367l.1.074s-.054-.165-.072-.211-.009-.055-.009-.055a.589.589,0,0,1,.125.3A1.341,1.341,0,0,0,422.531,293.317Z" transform="translate(-409.07 -283.559)" fill="#6c63ff" opacity="0.1"/>
      <path id="Path_107" data-name="Path 107" d="M806.312,189.7s-.6-1.234-1.353-.626a.234.234,0,0,0-.156.226s.063-.032.108.1a.62.62,0,0,0,.067.133.308.308,0,0,0,.154.122h0a1.086,1.086,0,0,0,.948.082.618.618,0,0,0,.2.009l-.2-.154a.417.417,0,0,1-.258.164s.257-.152.229-.188c-.006-.007-.108-.077-.108-.077a.681.681,0,0,1-.421.273s.331-.14.382-.3l-.164-.095a.718.718,0,0,1-.45.31s.341-.159.414-.329l-.172-.072s-.185.274-.406.294c0,0,.375-.223.366-.307a.889.889,0,0,0-.212-.051s-.137.193-.267.193c0,0,.235-.176.221-.2a.95.95,0,0,0-.353.036.7.7,0,0,1,.353-.072.385.385,0,0,0-.185-.122s.129-.049.241.127a.889.889,0,0,1,.2.042.84.84,0,0,0-.2-.272s.166.034.242.289l.175.069a1.2,1.2,0,0,0-.193-.337s.164.061.235.36l.16.092a1.437,1.437,0,0,0-.153-.339.568.568,0,0,1,.2.367l.1.074s-.054-.165-.072-.211-.009-.055-.009-.055a.592.592,0,0,1,.125.3A1.383,1.383,0,0,0,806.312,189.7Z" transform="translate(-779.052 -183.665)" fill="#6c63ff" opacity="0.1"/>
      <path id="Path_108" data-name="Path 108" d="M859.173,359.5s-.6-1.235-1.354-.626a.234.234,0,0,0-.156.226s.063-.032.108.1a.622.622,0,0,0,.066.133.309.309,0,0,0,.154.122h0a1.085,1.085,0,0,0,.948.082s.173.03.2.009l-.2-.154a.417.417,0,0,1-.258.164s.257-.152.229-.188c-.006-.007-.108-.077-.108-.077a.683.683,0,0,1-.421.274s.331-.141.382-.3l-.162-.1a.716.716,0,0,1-.45.31s.341-.159.414-.329l-.172-.072s-.185.274-.406.294c0,0,.375-.223.366-.308a.894.894,0,0,0-.212-.051s-.137.193-.267.193c0,0,.235-.176.221-.2a.951.951,0,0,0-.353.036.7.7,0,0,1,.354-.072.384.384,0,0,0-.185-.122s.129-.049.24.127a.886.886,0,0,1,.2.042.847.847,0,0,0-.2-.272s.166.034.242.289l.174.069a1.2,1.2,0,0,0-.193-.337s.164.06.235.36l.16.092a1.439,1.439,0,0,0-.153-.339.569.569,0,0,1,.2.368l.1.072s-.054-.165-.072-.211-.009-.055-.009-.055a.587.587,0,0,1,.125.3A1.456,1.456,0,0,0,859.173,359.5Z" transform="translate(-830.012 -347.361)" fill="#6c63ff" opacity="0.1"/>
      <ellipse id="Ellipse_3" data-name="Ellipse 3" cx="0.827" cy="0.092" rx="0.827" ry="0.092" transform="translate(6.434 28.016)" fill="#6c63ff" opacity="0.1"/>
      <ellipse id="Ellipse_4" data-name="Ellipse 4" cx="0.827" cy="0.092" rx="0.827" ry="0.092" transform="translate(1.016 26.445)" fill="#6c63ff" opacity="0.1"/>
      <ellipse id="Ellipse_5" data-name="Ellipse 5" cx="0.827" cy="0.092" rx="0.827" ry="0.092" transform="translate(10.565 29.059)" fill="#6c63ff" opacity="0.1"/>
      <ellipse id="Ellipse_6" data-name="Ellipse 6" cx="0.827" cy="0.092" rx="0.827" ry="0.092" transform="translate(31.73 26.787)" fill="#6c63ff" opacity="0.1"/>
      <ellipse id="Ellipse_7" data-name="Ellipse 7" cx="0.827" cy="0.092" rx="0.827" ry="0.092" transform="translate(24.852 26.339)" fill="#6c63ff" opacity="0.1"/>
      <ellipse id="Ellipse_8" data-name="Ellipse 8" cx="0.978" cy="0.168" rx="0.978" ry="0.168" transform="translate(20.252 28.374)" fill="#6c63ff" opacity="0.1"/>
      <path id="Path_109" data-name="Path 109" d="M668.119,790.14s-1.361.7-.658,1.532a.263.263,0,0,0,.257.167s-.038-.07.108-.125a.707.707,0,0,0,.147-.078.346.346,0,0,0,.132-.176h0a1.214,1.214,0,0,0,.063-1.062s.028-.195,0-.227l-.165.227a.463.463,0,0,1,.19.283s-.18-.283-.216-.252c-.008.006-.082.124-.082.124a.761.761,0,0,1,.318.462s-.167-.366-.347-.418l-.1.184a.8.8,0,0,1,.36.493s-.188-.376-.38-.452l-.076.194s.312.2.341.445c0,0-.261-.412-.355-.4a1,1,0,0,0-.051.239s.22.147.224.292c0,0-.2-.257-.235-.24a1.084,1.084,0,0,0,.05.393.776.776,0,0,1-.09-.393.431.431,0,0,0-.13.21s-.059-.142.134-.273a.993.993,0,0,1,.041-.226.948.948,0,0,0-.3.227s.033-.187.316-.279l.072-.2a1.34,1.34,0,0,0-.371.226s.063-.185.393-.274l.1-.18a1.654,1.654,0,0,0-.375.18.637.637,0,0,1,.4-.233l.079-.113s-.183.065-.234.089-.061.012-.061.012a.661.661,0,0,1,.328-.149A1.608,1.608,0,0,0,668.119,790.14Z" transform="translate(-646.453 -763.286)" fill="#6c63ff"/>
      <path id="Path_110" data-name="Path 110" d="M476.562,56.992c-.235-.639-1.529-.7-2.091-.536a16.79,16.79,0,0,1-1.69.313l-.029-.028c.058-.017.06-.06.052-.123a1.918,1.918,0,0,1,0-.249.613.613,0,0,0,.521-.117h0c.324-.144.237-.759.3-.928a10.665,10.665,0,0,0,.119-1.237h0l0-.124c0-.054,0-.085,0-.085a8.5,8.5,0,0,1,.093-1.087,9.513,9.513,0,0,0,.111-1.151v-.018l0-.078c0-.057,0-.121,0-.188,0-.307-.032-.695-.036-.757v-.033a1.106,1.106,0,0,0-.573-1.037l-.694-.308a11.733,11.733,0,0,1-.191-1.6c0-.081.007-.162.015-.242,0,.023,0,.047,0,.072v.157c.021-.673.275-1.349.252-2.007,0,.064-.007.129-.013.194a2.091,2.091,0,0,0-.069-.661.392.392,0,0,0-.113-.2.464.464,0,0,0-.2-.078,3.96,3.96,0,0,0-.517-.1.8.8,0,0,0-.116-.226,2.558,2.558,0,0,0-1.543-1.079,1.026,1.026,0,0,0-.907.22.675.675,0,0,0-.064.065c-.117.14-.168.324-.288.463l-.026.027c-.235.21-.6.254-.863.443a1.035,1.035,0,0,0-.129.113,2.19,2.19,0,0,0-.282.343,1.42,1.42,0,0,0-.276.535c-.075.4.194.77.244,1.168.111.891-.874,1.681-.687,2.56a1.172,1.172,0,0,0,.317.569c-.384.348-.712.686-.712.686v.02h-.061l.006.072h-.006l.033.39-.033.568v.054h0a9.079,9.079,0,0,0,.108,1.115,8.492,8.492,0,0,1,.093,1.087s.068,1.277.131,1.446-.026.783.3.928h0a.683.683,0,0,0,.326.135c-.017.134-.006.232.047.262a.157.157,0,0,0,.076.022.8.8,0,0,0-.059.1,1.524,1.524,0,0,1-.377-.089c-.349-.144-1.506-.467-1.842-.24s-1.145.434-.772,1.35.548.939.548.939a1.331,1.331,0,0,1,.3.3,3.693,3.693,0,0,0,1.419.554,2.56,2.56,0,0,1,.333.017s-.284.249-.246.393a11.936,11.936,0,0,1-.086,1.3s.288.29.411-.09l0,.006c.023.031.147.173.381-.006a2.137,2.137,0,0,1,.3-.193l1.133-.16a3.208,3.208,0,0,1,.355,0,.742.742,0,0,0,.467-.174c.235.089.5.187.624.222a5.819,5.819,0,0,0,1.7.288.38.38,0,0,0,.147-.1l.261.008-.122.024.562.008-.014.008.406,0c.594.005,1.261.007,1.349-.013a9.479,9.479,0,0,1,1.061,0h.059a.644.644,0,0,0,.461-.952,1.689,1.689,0,0,0-1.353-.838c.1-.019.178-.034.233-.042a1.843,1.843,0,0,0,.735-.325c.037-.074.423-.288.523-.41A2.29,2.29,0,0,0,476.562,56.992Zm-6.495,1.788-.038.013L470,58.8l-.05.049-.126-.083Zm3.427,1.013Z" transform="translate(-450.857 -43.42)" fill="url(#linear-gradient-2)"/>
      <path id="Path_111" data-name="Path 111" d="M686.65,246.1s.55,1.438.863,1.294.228-.755.288-.923.126-1.438.126-1.438a8.691,8.691,0,0,1,.09-1.081,9.911,9.911,0,0,0,.108-1.143V242.8l-.059-1.043-.336-.084-.779.288-.108.616-.042.241-.018.1Z" transform="translate(-665.147 -234.535)" fill="#be6f72"/>
      <path id="Path_112" data-name="Path 112" d="M691.69,358.3a3.861,3.861,0,0,0,.683.467c.158.038.255.373.255.373" transform="translate(-670.006 -346.972)" opacity="0.1"/>
      <path id="Path_113" data-name="Path 113" d="M527.474,247.854s-.55,1.438-.863,1.294-.228-.755-.288-.923-.126-1.438-.126-1.438a8.7,8.7,0,0,0-.09-1.081,9.9,9.9,0,0,1-.108-1.143v-.018l.06-1.043.336-.084.779.288.108.616.042.241.018.1Z" transform="translate(-510.273 -236.222)" fill="#be6f72"/>
      <rect id="Rectangle_21" data-name="Rectangle 21" width="1.228" height="1.914" transform="translate(19.555 3.936)" fill="#3e373a"/>
      <rect id="Rectangle_22" data-name="Rectangle 22" width="1.228" height="1.914" transform="translate(19.555 3.936)" opacity="0.1"/>
      <path id="Path_114" data-name="Path 114" d="M553,403.522s-.42.461-.264.545a17.159,17.159,0,0,1,1.163,1.654s3.308.407,3.932-.2a2.651,2.651,0,0,0,.611-1.7s-.5.108-.556.049-.355-.341-.355-.341S553.283,403.265,553,403.522Z" transform="translate(-536.01 -390.458)" fill="#4b4b5b"/>
      <path id="Path_115" data-name="Path 115" d="M553,403.522s-.42.461-.264.545a17.159,17.159,0,0,1,1.163,1.654s3.308.407,3.932-.2a2.651,2.651,0,0,0,.611-1.7s-.5.108-.556.049-.355-.341-.355-.341S553.283,403.265,553,403.522Z" transform="translate(-536.01 -390.458)" opacity="0.02"/>
      <path id="Path_116" data-name="Path 116" d="M534.813,155.691l-1.079.863-.326.024-.12.009-2.011.147-2.085-.152-.31-.023-.4-.029-.827-.791a14.153,14.153,0,0,1,1.1-1.05,2.251,2.251,0,0,1,.532-.356l.024-.008a.591.591,0,0,0,.228-.159,5.34,5.34,0,0,0,.779-1.447s1.786-.923,1.57.288.8.911.8.911l.336.153.133.061.338.155.763.35A1.134,1.134,0,0,1,534.813,155.691Z" transform="translate(-511.874 -148.457)" fill="#be6f72"/>
      <circle id="Ellipse_9" data-name="Ellipse 9" cx="1.606" cy="1.606" r="1.606" transform="translate(17.715 2.035)" opacity="0.1"/>
      <path id="Path_117" data-name="Path 117" d="M533.216,208.872H526v-.018l.06-1.043a14.162,14.162,0,0,1,1.1-1.05l4.53-.18.211-.222.763.35a1.136,1.136,0,0,1,.551,1.055A5.038,5.038,0,0,1,533.216,208.872Z" transform="translate(-510.273 -200.494)" opacity="0.1"/>
      <path id="Path_118" data-name="Path 118" d="M533.216,207.872H526v-.018l.06-1.043a14.16,14.16,0,0,1,1.1-1.05l4.53-.18.211-.222.763.35a1.136,1.136,0,0,1,.551,1.055A5.038,5.038,0,0,1,533.216,207.872Z" transform="translate(-510.273 -199.53)" fill="#e7c7ca"/>
      <path id="Path_119" data-name="Path 119" d="M581.739,185.5a1.68,1.68,0,0,0,2.654-.03c1.516-1.48.168,3.3.168,3.3l-3.272.388Z" transform="translate(-563.575 -180.079)" opacity="0.1"/>
      <path id="Path_120" data-name="Path 120" d="M581.739,187.5a1.68,1.68,0,0,0,2.654-.03c1.516-1.48.168,3.3.168,3.3l-3.272.388Z" transform="translate(-563.575 -182.007)" fill="#e7c7ca"/>
      <path id="Path_121" data-name="Path 121" d="M556.18,201.409l.12,1.837.129.611.1.467s.252,3.6.18,3.775.036.324.051.419-.015.336,0,.444,0,.156-.275.117-.659-.105-.659-.105a5.124,5.124,0,0,1-1.306-.048,3.833,3.833,0,0,0-.971-.12s-.959.024-1.27-.012-.48.384-.683.264.24-1.282.383-1.618-.192-1.186-.192-1.186l.431-2.393.1-.543v-1.706l.024-.008a.592.592,0,0,0,.228-.159l.108,1.716,3.38.12V201.35" transform="translate(-534.893 -195.665)" opacity="0.1"/>
      <path id="Path_122" data-name="Path 122" d="M556.18,199.409l.12,1.837.129.611.1.467s.252,3.6.18,3.775.036.324.051.419-.015.336,0,.444,0,.156-.275.117-.659-.105-.659-.105a5.124,5.124,0,0,1-1.306-.048,3.833,3.833,0,0,0-.971-.12s-.959.024-1.27-.012-.48.384-.683.264.24-1.282.383-1.618-.192-1.186-.192-1.186l.431-2.393.1-.543v-1.706l.024-.008a.591.591,0,0,0,.228-.159l.108,1.716,3.38.12V199.35" transform="translate(-534.893 -193.736)" fill="#e7c7ca"/>
      <path id="Path_123" data-name="Path 123" d="M543.084,48.954a.4.4,0,0,0-.108-.2.442.442,0,0,0-.19-.078,3.75,3.75,0,0,0-.5-.1.8.8,0,0,0-.108-.224,2.472,2.472,0,0,0-1.487-1.073.943.943,0,0,0-.9.247c-.113.139-.161.324-.275.46-.22.265-.616.3-.893.5a1.653,1.653,0,0,0-.36.416,1.426,1.426,0,0,0-.266.532c-.072.392.187.766.235,1.162.108.886-.841,1.671-.662,2.545a1.576,1.576,0,0,0,1.062,1.05.737.737,0,0,1,.448.293c.036.072.042.155.076.228a.454.454,0,0,0,.688.075,1.071,1.071,0,0,0,.288-.728c.1-1.163-.37-2.313-.315-3.479a1.026,1.026,0,0,1,.431-.913c.425-.216.937.144,1.405.075a2.788,2.788,0,0,1,.134,1.7,4.648,4.648,0,0,0-.212.931,2.865,2.865,0,0,0,.476,1.363.725.725,0,0,1,.1.263.634.634,0,0,1-.051.275,3.874,3.874,0,0,0-.375,1.034.167.167,0,0,0,.027.123.155.155,0,0,0,.093.042c.388.067.724-.278.914-.623a2.921,2.921,0,0,0,.36-1.241c.039-.732-.223-1.452-.207-2.185A8.723,8.723,0,0,0,543.084,48.954Z" transform="translate(-521.408 -47.114)" opacity="0.1"/>
      <path id="Path_124" data-name="Path 124" d="M544.084,47.954a.4.4,0,0,0-.108-.2.441.441,0,0,0-.19-.078,3.75,3.75,0,0,0-.5-.1.8.8,0,0,0-.108-.224,2.472,2.472,0,0,0-1.487-1.073.943.943,0,0,0-.9.247c-.113.139-.161.324-.275.46-.22.265-.616.3-.893.5a1.653,1.653,0,0,0-.36.416,1.425,1.425,0,0,0-.266.532c-.072.392.187.766.235,1.162.108.886-.841,1.671-.662,2.545a1.576,1.576,0,0,0,1.062,1.05.737.737,0,0,1,.448.293c.036.072.042.155.076.228a.454.454,0,0,0,.688.075,1.071,1.071,0,0,0,.288-.728c.1-1.163-.37-2.313-.315-3.479a1.026,1.026,0,0,1,.431-.912c.425-.216.937.144,1.405.075a2.788,2.788,0,0,1,.134,1.7,4.648,4.648,0,0,0-.212.931,2.865,2.865,0,0,0,.476,1.363.726.726,0,0,1,.1.263.635.635,0,0,1-.051.275,3.872,3.872,0,0,0-.375,1.034.167.167,0,0,0,.027.123.155.155,0,0,0,.093.042c.388.067.724-.278.914-.623a2.921,2.921,0,0,0,.36-1.241c.039-.732-.223-1.452-.207-2.185A8.726,8.726,0,0,0,544.084,47.954Z" transform="translate(-522.372 -46.15)" fill="#3e373a"/>
      <path id="Path_125" data-name="Path 125" d="M581.79,465.592l1.426.046-.2-1.058-1.093.1Z" transform="translate(-560.873 -447.869)" fill="#c3c7d9"/>
      <path id="Path_126" data-name="Path 126" d="M615.587,406.663c-.1.12-.467.335-.5.407a1.771,1.771,0,0,1-.707.324,5.89,5.89,0,0,0-1.079.276,10.511,10.511,0,0,1-1.352.358,3.839,3.839,0,0,1-.409.074c-.216.012-2.576-.791-2.576-.791l.455-.467.025-.009c.129-.043.723-.245,1.053-.34a2.424,2.424,0,0,0,.8-.551s.635-.216.719-.24-.216-.839-.216-.839,1.378-.191,1.917-.353,1.786-.1,2.013.533A2.341,2.341,0,0,1,615.587,406.663Z" transform="translate(-590.25 -391.447)" fill="#4b4b5b"/>
      <path id="Path_127" data-name="Path 127" d="M537,488.69a.841.841,0,0,1-.551.264c-.276-.024-1.24.072-1.24.072a1.933,1.933,0,0,0-.486.282c-.225.178-.345.036-.367.006l0-.006c-.12.378-.4.09-.4.09a12.165,12.165,0,0,0,.083-1.294c-.037-.144.237-.391.237-.391l.324-.082.82-.21,1.175.407Z" transform="translate(-517.947 -471.449)" fill="#e7c7ca"/>
      <path id="Path_128" data-name="Path 128" d="M534.6,493.26l-.243,1.683,0-.006c-.12.378-.4.09-.4.09a12.166,12.166,0,0,0,.083-1.294c-.037-.144.237-.391.237-.391Z" transform="translate(-517.947 -477.079)" opacity="0.1"/>
      <path id="Path_129" data-name="Path 129" d="M599,360.08a1.962,1.962,0,0,0,1.187,0" transform="translate(-580.649 -348.688)" opacity="0.1"/>
      <path id="Path_130" data-name="Path 130" d="M659.29,371.42a.524.524,0,0,0,.467,0" transform="translate(-638.771 -359.62)" opacity="0.1"/>
      <path id="Path_131" data-name="Path 131" d="M659.29,378.48s.443.059.527-.06" transform="translate(-638.771 -366.368)" opacity="0.1"/>
      <path id="Path_132" data-name="Path 132" d="M655.29,392a4.088,4.088,0,0,0,1.039-.252" transform="translate(-634.915 -379.219)" opacity="0.1"/>
      <path id="Path_133" data-name="Path 133" d="M584.62,391.75a1.977,1.977,0,0,0,.815.252" transform="translate(-566.786 -379.219)" opacity="0.1"/>
      <path id="Path_134" data-name="Path 134" d="M611.936,472.373a3.838,3.838,0,0,1-.41.074c-.216.012-2.576-.791-2.576-.791l.455-.467.025-.009c.072.051.131.094.173.127.2.156.389-.048.461-.048a5.819,5.819,0,0,1,.695.515,2.159,2.159,0,0,1,.671.252c.1.12.431.1.491.18A.321.321,0,0,1,611.936,472.373Z" transform="translate(-590.241 -455.793)" opacity="0.1"/>
      <path id="Path_135" data-name="Path 135" d="M474.236,406.341a2.606,2.606,0,0,1-.917-.108c-.335-.141-1.45-.467-1.774-.238s-1.1.431-.743,1.342.527.935.527.935a1.3,1.3,0,0,1,.288.3,3.488,3.488,0,0,0,1.366.551,2.089,2.089,0,0,1,1.318.431,2.708,2.708,0,0,0,1.186.48s.791.324,1.037.4a5.5,5.5,0,0,0,1.636.288c.264-.1.431-.7.431-.7s.12-.539.06-.623-.4-.06-.491-.18a2.155,2.155,0,0,0-.671-.252,5.793,5.793,0,0,0-.694-.516c-.072,0-.263.2-.461.048a10.523,10.523,0,0,0-1.241-.791C474.639,407.468,474.236,406.341,474.236,406.341Z" transform="translate(-456.971 -392.875)" fill="#4b4b5b"/>
      <path id="Path_136" data-name="Path 136" d="M536.27,427.047a.687.687,0,0,1,.589.156,10.43,10.43,0,0,0,1.255.721" transform="translate(-520.174 -413.234)" opacity="0.1"/>
      <path id="Path_137" data-name="Path 137" d="M695.482,427a4.531,4.531,0,0,0-1.522.458" transform="translate(-672.194 -413.202)" opacity="0.1"/>
      <path id="Path_138" data-name="Path 138" d="M688.916,489.218h-.056a9.661,9.661,0,0,0-1.022,0c-.156.036-2.217,0-2.217,0l.4-.084s-.15-.524-.055-.568c0,0-.539-.355-.133-.6a1.261,1.261,0,0,1,.845-.139l1.021-.346.2-.067s1.151.06,1.462.851A.641.641,0,0,1,688.916,489.218Z" transform="translate(-664.154 -471.449)" fill="#e7c7ca"/>
      <path id="Path_139" data-name="Path 139" d="M744.724,489.266h-.056c.335-.276,1.092-1.117-1.158-1.729l.2-.067s1.151.06,1.462.851A.639.639,0,0,1,744.724,489.266Z" transform="translate(-719.963 -471.498)" opacity="0.1"/>
      <circle id="Ellipse_10" data-name="Ellipse 10" cx="0.063" cy="0.063" r="0.063" transform="translate(22.583 16.711)" fill="#4b4b5b"/>
      <circle id="Ellipse_11" data-name="Ellipse 11" cx="0.063" cy="0.063" r="0.063" transform="translate(22.218 16.814)" fill="#4b4b5b"/>
      <g id="Group_2" data-name="Group 2" transform="translate(16.188 2.268)" opacity="0.1">
        <path id="Path_140" data-name="Path 140" d="M603.851,107.963a2.789,2.789,0,0,0-.206-1.156c-.467.07-.979-.291-1.405-.075a1.032,1.032,0,0,0-.432.912c0,.093-.005.186,0,.279,0-.033,0-.067,0-.1a1.027,1.027,0,0,1,.432-.912c.426-.216.937.144,1.405.075A2.781,2.781,0,0,1,603.851,107.963Z" transform="translate(-599.54 -106.65)"/>
        <path id="Path_141" data-name="Path 141" d="M551.254,109.832a1.192,1.192,0,0,0,0-.235c-.038-.316-.211-.619-.242-.927-.04.372.2.729.242,1.107A.226.226,0,0,1,551.254,109.832Z" transform="translate(-550.565 -108.585)"/>
        <path id="Path_142" data-name="Path 142" d="M541.407,202.387a1.057,1.057,0,0,1-.288.729.454.454,0,0,1-.688-.075c-.036-.072-.041-.156-.076-.228-.08-.165-.276-.229-.448-.293a1.573,1.573,0,0,1-1.062-1.05,1.107,1.107,0,0,1-.019-.14,1.137,1.137,0,0,0,.019.32,1.577,1.577,0,0,0,1.062,1.05c.172.064.368.128.448.293.036.072.042.155.076.228a.454.454,0,0,0,.688.075,1.072,1.072,0,0,0,.288-.729,4.109,4.109,0,0,0,.011-.422C541.418,202.227,541.413,202.307,541.407,202.387Z" transform="translate(-538.823 -197.914)"/>
        <path id="Path_143" data-name="Path 143" d="M687.93,108.15v.156c.02-.669.265-1.341.241-2C688.153,106.915,687.944,107.535,687.93,108.15Z" transform="translate(-682.569 -106.31)"/>
        <path id="Path_144" data-name="Path 144" d="M651.348,188.972a.468.468,0,0,0,.008-.13.72.72,0,0,0-.1-.263,3.232,3.232,0,0,1-.473-1.239c0,.019,0,.036,0,.056a2.862,2.862,0,0,0,.476,1.363A.864.864,0,0,1,651.348,188.972Z" transform="translate(-646.759 -184.427)"/>
        <path id="Path_145" data-name="Path 145" d="M656.171,216.332a2.924,2.924,0,0,1-.363,1.241c-.19.346-.525.69-.914.623a.153.153,0,0,1-.093-.042.092.092,0,0,1-.017-.028c0,.028-.008.056-.01.085a.166.166,0,0,0,.027.123.153.153,0,0,0,.093.042c.389.067.724-.278.914-.623a2.924,2.924,0,0,0,.363-1.241c0-.084,0-.168,0-.252C656.172,216.284,656.172,216.308,656.171,216.332Z" transform="translate(-650.603 -212.307)"/>
      </g>
      <path id="Path_146" data-name="Path 146" d="M695.31,506.883a1.272,1.272,0,0,0,1.51-.463" transform="translate(-673.496 -489.766)" fill="none" stroke="#000" stroke-miterlimit="10" stroke-width="1" opacity="0.1"/>
      <path id="Path_147" data-name="Path 147" d="M700.29,531.974a1.774,1.774,0,0,1,1.69-.016" transform="translate(-678.297 -514.189)" fill="none" stroke="#000" stroke-miterlimit="10" stroke-width="1" opacity="0.1"/>
      <path id="Path_148" data-name="Path 148" d="M561.93,524.916s.312-.7,1.146-.167" transform="translate(-544.911 -507.242)" fill="none" stroke="#000" stroke-miterlimit="10" stroke-width="1" opacity="0.1"/>
      <path id="Path_149" data-name="Path 149" d="M533.79,226.389l.636-.575s2.467-.162,2.57.677a3.141,3.141,0,0,1,2.714-.773l.778.62-2.151.944-2.091.725-1.54-.689Z" transform="translate(-517.783 -219.125)" opacity="0.1"/>
      <path id="Path_150" data-name="Path 150" d="M533.79,227.389l.636-.575s2.467-.162,2.57.677a3.141,3.141,0,0,1,2.714-.773l.778.62-2.151.944-2.091.725-1.54-.689Z" transform="translate(-517.783 -220.089)" fill="#d5d6db"/>
      <path id="Path_151" data-name="Path 151" d="M437.38,204.83l.282,3.368,2.984.15-.129-3.353,0-.056Z" transform="translate(-421.655 -197.458)" opacity="0.1"/>
      <path id="Path_152" data-name="Path 152" d="M437.38,202.83l.282,3.368,2.984.15-.129-3.353,0-.056Z" transform="translate(-421.655 -195.53)" fill="#6c63ff"/>
      <path id="Path_153" data-name="Path 153" d="M552.788,202.83l-3.078.462v3.383l3.008-.435Z" transform="translate(-529.946 -195.53)" opacity="0.1"/>
      <path id="Path_154" data-name="Path 154" d="M552.788,200.83l-3.078.462v3.383l3.008-.435Z" transform="translate(-529.946 -193.602)" fill="#6c63ff"/>
      <path id="Path_155" data-name="Path 155" d="M570.553,223.79l-1.663.185.036.567,1.625-.178Z" transform="translate(-548.436 -215.737)" fill="#fff" opacity="0.3"/>
      <path id="Path_156" data-name="Path 156" d="M536.352,309.659l.169.456a.566.566,0,0,0,.527.108,2.7,2.7,0,0,0,.635-.266,2.407,2.407,0,0,0,.288-.632,2.24,2.24,0,0,1,.335-.719c.168-.144.611-2.125,0-1.931s-1.079,1.991-1.079,1.991a.427.427,0,0,1-.264.144c-.156.012-.467-.024-.527.108S536.173,309.4,536.352,309.659Z" transform="translate(-520.184 -297.188)" fill="#be6f72"/>
      <path id="Path_157" data-name="Path 157" d="M614.083,253.045a1.035,1.035,0,0,1-.9-.225l.13,3.353a.915.915,0,0,0,.773.255Z" transform="translate(-594.319 -245.284)" opacity="0.1"/>
      <path id="Path_158" data-name="Path 158" d="M614.083,251.045a1.035,1.035,0,0,1-.9-.225l.13,3.353a.915.915,0,0,0,.773.255Z" transform="translate(-594.319 -243.356)" fill="#6c63ff"/>
      <path id="Path_159" data-name="Path 159" d="M614.083,251.045a1.035,1.035,0,0,1-.9-.225l.13,3.353a.915.915,0,0,0,.773.255Z" transform="translate(-594.319 -243.356)" opacity="0.1"/>
      <path id="Path_160" data-name="Path 160" d="M640.29,237.609a7.135,7.135,0,0,1,1.579-.329" transform="translate(-620.454 -230.298)" opacity="0.1"/>
      <path id="Path_161" data-name="Path 161" d="M563.347,236.005a6.173,6.173,0,0,0-1.417-.206" transform="translate(-544.911 -228.861)" opacity="0.1"/>
      <path id="Path_162" data-name="Path 162" d="M662.25,242.526s.837-.307,1.14-.161" transform="translate(-641.625 -235.167)" opacity="0.1"/>
      <path id="Path_163" data-name="Path 163" d="M650.52,445.24a2.747,2.747,0,0,1,.413-.256,6.736,6.736,0,0,0,.611-.374" transform="translate(-630.316 -430.178)" opacity="0.1"/>
      <path id="Path_164" data-name="Path 164" d="M536.768,360.08a3.874,3.874,0,0,1-.683.467c-.158.038-.255.373-.255.373" transform="translate(-519.75 -348.688)" opacity="0.1"/>
      <path id="Path_165" data-name="Path 165" d="M654.552,307.907l-.168.457a.566.566,0,0,1-.527.108,2.69,2.69,0,0,1-.635-.266,2.4,2.4,0,0,1-.288-.632,2.232,2.232,0,0,0-.335-.719c-.168-.144-.611-2.125,0-1.931s1.079,1.991,1.079,1.991a.427.427,0,0,0,.264.144c.156.012.467-.024.527.108S654.732,307.645,654.552,307.907Z" transform="translate(-632.019 -295.501)" fill="#be6f72"/>
      <path id="Path_166" data-name="Path 166" d="M707.15,364.94s.343.221.342.485" transform="translate(-684.91 -353.373)" opacity="0.1"/>
      <circle id="Ellipse_12" data-name="Ellipse 12" cx="1.606" cy="1.606" r="1.606" transform="translate(17.72 1.956)" fill="#be6f72"/>
      <path id="Path_167" data-name="Path 167" d="M576.746,84.9a3.293,3.293,0,0,0,.552-.209,2.09,2.09,0,0,1,1.3.086,1.685,1.685,0,0,0,.5.108.5.5,0,0,0,.437-.216.488.488,0,0,0,0-.45,1.269,1.269,0,0,0-.293-.362,1.9,1.9,0,0,0-1.351-.647,1.858,1.858,0,0,0-.594.17,6.544,6.544,0,0,0-.7.351c-.173.1-.493.234-.593.418C575.773,84.56,576.394,84.954,576.746,84.9Z" transform="translate(-558.428 -81.767)" fill="#3e373a"/>
      <path id="Path_168" data-name="Path 168" d="M579.526,112.045a.5.5,0,0,1-.436.216,1.686,1.686,0,0,1-.5-.106,2.087,2.087,0,0,0-1.3-.086,3.13,3.13,0,0,1-.552.209.775.775,0,0,1-.791-.517c-.056.363.475.675.791.625a3.309,3.309,0,0,0,.552-.209,2.087,2.087,0,0,1,1.3.086,1.618,1.618,0,0,0,.5.106.506.506,0,0,0,.436-.216.421.421,0,0,0,.05-.263A.387.387,0,0,1,579.526,112.045Z" transform="translate(-558.424 -109.296)" opacity="0.1"/>
      <path id="Path_169" data-name="Path 169" d="M1022.268,661.63s.213.279-.1.7-.568.776-.465,1.039c0,0,.47-.782.853-.793S1022.688,662.1,1022.268,661.63Z" transform="translate(-988.133 -639.396)" fill="#6c63ff"/>
      <path id="Path_170" data-name="Path 170" d="M1022.595,661.63a.347.347,0,0,1,.043.087c.373.439.573.848.213.858-.334.01-.735.608-.831.758a.35.35,0,0,0,.011.036s.47-.782.853-.793S1023.015,662.1,1022.595,661.63Z" transform="translate(-988.46 -639.396)" opacity="0.1"/>
      <path id="Path_171" data-name="Path 171" d="M1047.679,669.828c0,.1-.011.178-.024.178s-.025-.08-.025-.178.014-.052.027-.052S1047.679,669.73,1047.679,669.828Z" transform="translate(-1013.149 -647.239)" fill="#ffd037"/>
      <path id="Path_172" data-name="Path 172" d="M1048.286,672.915c-.086.047-.161.075-.167.063s.058-.06.144-.108.052-.013.059,0S1048.372,672.868,1048.286,672.915Z" transform="translate(-1013.619 -650.209)" fill="#ffd037"/>
      <path id="Path_173" data-name="Path 173" d="M993.838,661.63s-.213.279.1.7.568.776.465,1.039c0,0-.47-.782-.853-.793S993.419,662.1,993.838,661.63Z" transform="translate(-960.83 -639.396)" fill="#6c63ff"/>
      <path id="Path_174" data-name="Path 174" d="M993.838,661.63a.343.343,0,0,0-.043.087c-.373.439-.572.848-.213.858.334.01.735.608.831.758a.265.265,0,0,1-.012.036s-.47-.782-.853-.793S993.419,662.1,993.838,661.63Z" transform="translate(-960.83 -639.396)" opacity="0.1"/>
      <path id="Path_175" data-name="Path 175" d="M995.64,669.828c0,.1.011.178.024.178s.025-.08.025-.178-.014-.052-.027-.052S995.64,669.73,995.64,669.828Z" transform="translate(-963.028 -647.239)" fill="#ffd037"/>
      <path id="Path_176" data-name="Path 176" d="M990.457,672.915c.086.047.161.075.168.063s-.058-.06-.144-.108-.052-.013-.059,0S990.371,672.868,990.457,672.915Z" transform="translate(-957.981 -650.209)" fill="#ffd037"/>
      <ellipse id="Ellipse_13" data-name="Ellipse 13" cx="2.229" cy="0.342" rx="2.229" ry="0.342" transform="translate(31.343 25.421)" fill="#6c63ff" opacity="0.1"/>
      <path id="Path_177" data-name="Path 177" d="M992.693,696.04l-.011.087-.015.123-.006.051-.015.123-.006.051-.015.123-.171,1.4c-.015.125-.219.222-.465.222H991.1c-.246,0-.45-.1-.465-.222l-.171-1.4-.015-.123-.006-.051-.015-.123-.006-.051-.015-.123-.011-.087c-.008-.072.1-.13.241-.13h1.813C992.592,695.91,992.7,695.969,992.693,696.04Z" transform="translate(-957.974 -672.443)" fill="#65617d"/>
      <path id="Path_178" data-name="Path 178" d="M904.4,658.53l-.015.123h-2.244l-.015-.123Z" transform="translate(-869.695 -634.846)" fill="#9d9cb5"/>
      <path id="Path_179" data-name="Path 179" d="M904.951,663.38l-.015.123h-2.2l-.015-.123Z" transform="translate(-870.264 -639.522)" fill="#9d9cb5"/>
      <path id="Path_180" data-name="Path 180" d="M905.508,668.23l-.015.123h-2.158l-.015-.123Z" transform="translate(-870.843 -644.197)" fill="#9d9cb5"/>
    </g>
  </g>
</svg>
