<svg xmlns="http://www.w3.org/2000/svg" width="22.007" height="22" viewBox="0 0 22.007 22">
  <g id="Icon_ionic-ios-home" data-name="Icon ionic-ios-home" transform="translate(-3.374 -3.375)">
    <path id="Path_182" data-name="Path 182" d="M15.344,7.3a.207.207,0,0,0-.264,0l-8.25,6.6a.222.222,0,0,0-.079.164V26.231a.106.106,0,0,0,.106.106h5.712a.106.106,0,0,0,.106-.106v-7.4a.106.106,0,0,1,.106-.106h4.865a.106.106,0,0,1,.106.106v7.4a.106.106,0,0,0,.106.106h5.712a.106.106,0,0,0,.106-.106V14.068a.214.214,0,0,0-.079-.164Z" transform="translate(-0.837 -0.962)" fill="#707070"/>
    <path id="Path_183" data-name="Path 183" d="M25.094,11.636l-10-8.007a1.161,1.161,0,0,0-1.449,0L9.3,7.167V4.935a.106.106,0,0,0-.106-.106H6.019a.106.106,0,0,0-.106.106V9.811L3.655,11.667a.74.74,0,0,0-.063,1.105.736.736,0,0,0,.524.217.745.745,0,0,0,.465-.164L14.306,5a.1.1,0,0,1,.069-.021A.128.128,0,0,1,14.443,5l9.725,7.8a.745.745,0,0,0,.465.164.75.75,0,0,0,.746-.783A.752.752,0,0,0,25.094,11.636Z" transform="translate(0)" fill="#707070"/>
  </g>
</svg>
